<?xml version="1.0" encoding="utf-8"?>
<!-- Generator: Adobe Illustrator 27.1.1, SVG Export Plug-In . SVG Version: 6.00 Build 0)  -->
<svg version="1.1" id="Layer_1" xmlns="http://www.w3.org/2000/svg" xmlns:xlink="http://www.w3.org/1999/xlink" x="0px" y="0px"
	 viewBox="0 0 1000 1000" style="enable-background:new 0 0 1000 1000;" xml:space="preserve">
<style type="text/css">
	.st0{fill:#FFFFFF;}
</style>
<g>
	<path class="st0" d="M35.51,722.56c-0.95,0-2.96-0.56-6.04-1.69c-3.08-1.13-4.62-2.81-4.62-5.06c0-2.25,1.6-5.98,4.79-11.18
		c4.97-8.29,13.7-21.25,26.19-38.88c12.48-17.64,26.24-36.27,41.28-55.92c6.63-8.88,9.94-13.61,9.94-14.2h-0.53
		c-1.3,0-4.88,0.33-10.74,0.98c-5.86,0.65-12.46,1.48-19.8,2.49c-7.34,1.01-14.2,2.04-20.59,3.11c-29.47,4.5-44.98,7.69-46.51,9.59
		c-0.36,0.36-0.95,0.53-1.78,0.53c-0.95,0-1.95-0.18-3.02-0.53c-1.07-0.35-2.01-0.89-2.84-1.6C0.41,609.48,0,608.77,0,608.06
		c0-2.25,6.09-5.15,18.29-8.7c6.39-2.13,9.76-3.55,10.12-4.26c1.3-0.95,9.17-3.91,23.61-8.88c46.16-16.21,75.33-26.69,87.52-31.42
		c1.3-0.95,4.67-4.73,10.12-11.36c16.8-19.88,36.04-41.3,57.7-64.27c5.33-5.8,8.05-8.88,8.17-9.23l-3.37-2.31
		c-2.01-1.54-3.02-2.6-3.02-3.2c0-0.24,0.24-0.83,0.71-1.78c6.04-13.61,41.96-44.03,107.76-91.25c4.02-2.84,6.69-4.26,7.99-4.26
		c0.71,0,1.48,0.18,2.31,0.53l0.35,0.18c2.13,0.71,3.84,1.66,5.15,2.84c1.3,1.18,1.95,2.25,1.95,3.2c0,1.3-0.65,2.87-1.95,4.7
		c-1.3,1.84-1.95,3.23-1.95,4.17v1.07c0,0.47-0.24,1.18-0.71,2.13c-1.07,1.77-4.79,6.1-11.18,12.96
		c-5.68,6.27-17.22,18.58-34.62,36.93c-23.2,24.26-46.04,49.06-68.53,74.39L198.3,530.3c-1.3,1.54-1.95,2.43-1.95,2.66h0.18
		c0.24,0,2.66-0.95,7.28-2.84c11.6-4.62,23.32-9.47,35.15-14.56c49-20.95,103.86-48.29,164.57-82.02
		c21.89-11.95,34.97-19,39.23-21.13c2.96-1.42,4.85-2.13,5.68-2.13c1.66,0,3.25,0.56,4.79,1.69c1.54,1.13,2.31,2.22,2.31,3.28
		c0,1.89-5.65,6.84-16.95,14.82c-11.3,7.99-25.39,17.13-42.25,27.43c-16.87,10.3-34.12,20.3-51.75,30
		c-26.51,14.09-53.32,26.84-80.42,38.26c-27.1,11.42-58.47,23.76-94.09,37.01c-1.89,2.13-3.76,4.17-5.59,6.12
		c-1.84,1.95-3.23,3.58-4.17,4.88l-1.6,1.95c0.12,0.12,0.71,0.18,1.78,0.18c2.6,0,7.22-0.24,13.85-0.71
		c10.18-0.59,27.87-0.89,53.08-0.89c25.09,0,42.9,0.3,53.44,0.89c48.88,2.96,99.65,8.82,152.32,17.57
		c64.62,10.77,110.89,22.13,138.83,34.09c7.81,3.43,11.72,6.1,11.72,7.99c0,0.24-0.15,0.56-0.44,0.98c-0.3,0.41-0.86,0.62-1.69,0.62
		c-1.54,0-5.15-1.01-10.83-3.02c-47.58-15.98-115.63-28.58-204.16-37.81c-44.15-4.14-87.46-6.21-129.95-6.21
		c-10.77,0-21.19,0.12-31.25,0.36c-35.15,0.83-55.15,1.66-60,2.49c-3.79,2.01-33.79,38.29-90.01,108.83
		c-4.62,5.8-8.29,10.23-11.01,13.31C39.88,719.84,36.93,722.56,35.51,722.56z"/>
</g>
<g>
	<path class="st0" d="M685.77,702.32c-2.49,0-4.5-0.3-6.04-0.89c-1.54-0.59-2.46-1.33-2.75-2.22c-0.29-0.89-0.44-2.52-0.44-4.88
		c0-34.44,64.91-126.11,194.75-274.99c54.91-62.37,88.88-100.24,101.9-113.62l2.31-2.13c-48.29,25.68-91.87,51.63-130.75,77.85
		c-38.88,26.22-72.23,49.68-100.04,70.39c-16.92,12.43-31.57,22.9-43.94,31.42c-12.37,8.52-22.16,14.32-29.38,17.4
		c-2.84,1.06-5.5,1.6-7.99,1.6c-3.31,0-5.86-1-7.63-3.02c-0.59-0.59-0.89-1.24-0.89-1.95c0-4.85,10.12-26.16,30.36-63.91
		c15.74-29.59,32.19-59.06,49.35-88.41c7.81-12.78,12.43-20.77,13.85-23.97l0.71-1.6l-3.9,2.31c-16.81,9.23-38.76,23.08-65.86,41.54
		c-86.16,57.88-162.09,119.18-227.77,183.92c-8.4,8.76-14.38,14.56-17.93,17.4c-0.95,0.59-2.96,1.42-6.04,2.49l-1.06,0.36
		c-1.66,0.35-3.37,0.53-5.15,0.53c-3.08,0-6.01-0.51-8.79-1.51c-2.78-1.01-4.17-2.46-4.17-4.35c0-3.91,7.34-18.35,22.01-43.32
		c50.06-84.03,95.04-139.66,134.92-166.88c4.97-3.79,8.94-6.27,11.9-7.46c2.96-1.18,6.15-1.77,9.59-1.77c2.37,0,4.29,0.33,5.77,0.98
		c1.48,0.65,2.22,1.45,2.22,2.4c0,1.06-1.01,2.07-3.02,3.02c-2.84,1.54-9.11,7.49-18.82,17.84c-9.7,10.36-20.27,22.25-31.69,35.68
		c-11.42,13.43-21.13,25.48-29.11,36.13c-7.99,10.65-16.93,23.29-26.81,37.9c-9.88,14.62-17.72,26.9-23.52,36.84v0.18
		c0.24,0,0.83-0.47,1.78-1.42c13.49-12.43,30.54-27.25,51.13-44.47c20.59-17.22,39.06-32.1,55.39-44.65
		c51.72-38.7,100.19-71.54,145.4-98.53c11.36-6.75,19.97-11.33,25.83-13.76c5.86-2.42,11.27-3.64,16.24-3.64
		c6.27,0,10.53,1.24,12.78,3.73c1.18,0.95,1.78,2.31,1.78,4.08c0,2.72-2.04,7.66-6.13,14.82c-4.08,7.16-11.45,18.85-22.1,35.06
		c-26.39,40.83-47.22,75.63-62.49,104.39c-6.75,12.67-10.12,19.35-10.12,20.06c0.47,0,1.6-0.65,3.37-1.95
		c3.67-2.72,13.43-10.59,29.29-23.61c29.23-23.91,55.77-44.35,79.62-61.34c23.85-16.98,51.33-35,82.46-54.06
		c35.98-22.13,65.15-38.58,87.52-49.35c10.41-5.33,17.99-8.88,22.73-10.65c4.73-1.77,8.7-2.66,11.89-2.66c3.79,0,6.27,0.27,7.46,0.8
		c1.18,0.53,2.31,1.39,3.37,2.57c0.59,0.83,0.89,1.66,0.89,2.49c-0.71,5.68-5.03,13.38-12.96,23.08l-4.97,6.75
		c-2.37,3.43-6.27,8.34-11.71,14.74l-31.25,35.68c-61.31,69.59-112.35,130.52-153.12,182.77c-40.77,52.25-67.85,91.46-81.22,117.61
		c-4.14,8.76-6.92,16.33-8.34,22.72c-0.36,2.01-0.71,3.43-1.06,4.26C694.17,701.26,690.98,702.32,685.77,702.32z"/>
</g>
</svg>
